<svg width="124" height="40" viewBox="0 0 124 40" xmlns="http://www.w3.org/2000/svg">
  <!-- BDBT Logo - Exact match to image -->
  
  <!-- B -->
  <path d="M 0 0 L 0 40 L 18 40 C 23 40 26 38 28 35 C 29 33 30 30 30 27 C 30 22 28 19 25 17 C 27 15 28 12 28 9 C 28 6 27 3 25 1 C 23 0 20 0 16 0 L 0 0 Z M 8 7 L 16 7 C 19 7 21 9 21 12 C 21 15 19 17 16 17 L 8 17 L 8 7 Z M 8 23 L 17 23 C 20 23 22 25 22 28 C 22 31 20 33 17 33 L 8 33 L 8 23 Z" fill="black"/>
  
  <!-- D -->
  <path d="M 36 0 L 36 40 L 50 40 C 58 40 64 37 67 32 C 70 27 71 21 71 20 C 71 13 70 7 67 4 C 64 1 58 0 50 0 L 36 0 Z M 44 7 L 50 7 C 55 7 58 8 60 11 C 62 14 63 17 63 20 C 63 23 62 26 60 29 C 58 32 55 33 50 33 L 44 33 L 44 7 Z" fill="black"/>
  
  <!-- Horizontal line above BT -->
  <rect x="76" y="0" width="48" height="7" fill="black"/>
  
  <!-- B (second) -->
  <path d="M 76 13 L 76 40 L 90 40 C 94 40 97 39 99 37 C 101 35 102 32 102 29 C 102 25 100 22 97 21 C 99 19 100 17 100 14 C 100 12 99 10 97 8 C 95 7 93 7 90 7 L 76 7 L 76 13 Z M 84 13 L 89 13 C 91 13 92 14 92 16 C 92 18 91 19 89 19 L 84 19 L 84 13 Z M 84 25 L 90 25 C 92 25 94 26 94 29 C 94 31 92 33 90 33 L 84 33 L 84 25 Z" fill="black"/>
  
  <!-- T -->
  <path d="M 106 7 L 106 13 L 110 13 L 110 40 L 118 40 L 118 13 L 124 13 L 124 7 L 106 7 Z" fill="black"/>
</svg>